<?xml version="1.0" encoding="utf-8"?>
<svg version="1.1" id="Layer_1" xmlns="http://www.w3.org/2000/svg" xmlns:xlink="http://www.w3.org/1999/xlink" x="0px" y="0px"
	 viewBox="0 0 125.6 70" style="enable-background:new 0 0 125.6 70;" xml:space="preserve">
<style type="text/css">
	.st0{fill:#383638;}
	.st1{fill:#F0C51B;}
</style>
<path class="st0" d="M5,66.6L0.7,54.5h2.1L6,64.4H6l3.1-9.9h2L7,66.6H5z"/>
<path class="st0" d="M14.4,62.3c0,1.8,1.1,2.9,2.9,2.9c1.7,0,2.9-1.1,2.9-2.9v-7.8h1.8v7.9c0,2.7-1.9,4.4-4.7,4.4
	c-2.8,0-4.7-1.8-4.7-4.5v-7.9h1.8V62.3z"/>
<path class="st0" d="M23.4,66.6l4.2-12.1h2l4.2,12.1h-2l-1.1-3.5h-4.3l-1.1,3.5H23.4z M28.5,56.5l-1.7,5.2h3.5L28.5,56.5L28.5,56.5z
	"/>
<path class="st0" d="M46.6,66.6v-5.4h-5.8v5.4H39V54.5h1.8v5.1h5.8v-5.1h1.8v12.1H46.6z"/>
<path class="st0" d="M50,66.6l4.2-12.1h2l4.2,12.1h-2l-1.1-3.5H53l-1.1,3.5H50z M54.7,53.2l-2.6-1.8H54l2.2,1.8H54.7z M55.1,56.5
	l-1.7,5.2h3.5L55.1,56.5L55.1,56.5z"/>
<path class="st0" d="M62,66.6V54.5h1.7l5.8,9h0.1v-9h1.8v12.1h-1.7l-5.8-9h-0.1v9H62z"/>
<path class="st0" d="M81.3,58.2c-0.2-1.6-1.4-2.4-2.8-2.4c-1.7,0-3.1,1.1-3.1,3.9v1.6c0,2.4,1,3.9,3.1,3.9c1.7,0,2.9-1.1,2.9-2.5v-1
	h-2.9v-1.5h4.7v2.5c0,1.7-1.2,4.2-4.6,4.2c-3.3,0-4.9-2.2-4.9-5.5v-1.6c0-3.4,1.9-5.4,5-5.4c2.9,0,4.4,1.9,4.6,4H81.3z"/>
<path class="st0" d="M96.7,66.6v-5.4h-5.8v5.4h-1.8V54.5h1.8v5.1h5.8v-5.1h1.8v12.1H96.7z"/>
<path class="st0" d="M101.3,66.6V54.5h1.8v12.1H101.3z"/>
<path class="st0" d="M113.3,66.6h-7.4V54.5h7.4v1.6h-5.6v3.6h5.3v1.5h-5.3V65h5.6V66.6z M109.6,68c0.6,0,1,0.4,1,1c0,0.6-0.4,1-1,1
	c-0.5,0-1-0.4-1-1C108.6,68.4,109,68,109.6,68z"/>
<path class="st0" d="M117.4,62.3c0,1.8,1.1,2.9,2.9,2.9c1.7,0,2.9-1.1,2.9-2.9v-7.8h1.8v7.9c0,2.7-1.9,4.4-4.7,4.4
	c-2.8,0-4.7-1.8-4.7-4.5v-7.9h1.8V62.3z"/>
<polygon class="st0" points="107.5,53.2 111.5,53.2 111.7,50.9 110.4,52.1 109.6,50.9 108.7,52.1 107.5,50.9 "/>
<g>
	<path class="st1" d="M70.7,18.2l-6.9,18.5c-1.2-4-2.7-8.8-4-12.8c-2.1-6.5-12.3-5.8-12.3-5.8s1.1,2.8,2.2,5.1c4.7-0.3,6,1.9,7.6,11
		c1.6,9.1,8.8,9.9,8.8,9.9l12.1-26H70.7z"/>
	<path class="st1" d="M63,13.2h0.5h10.1l3.7-8.5l0,0l-5,2c0,0,0,0.1,0,0.1c0.3,1.4-0.9,2.8-2.6,3.1c-1.7,0.3-3.3-0.6-3.5-2
		c-0.2-1.1,0.5-2.2,1.7-2.8l-4.6-5l0-0.1l0,0.1l-4.6,5c1.2,0.6,1.9,1.7,1.7,2.8c-0.3,1.4-1.8,2.3-3.5,2c-1.7-0.3-2.9-1.7-2.6-3.1
		c0,0,0-0.1,0-0.1l-5-2l0,0l3.7,8.5H63z"/>
</g>
</svg>
